<svg id="Layer_2" enable-background="new 0 0 24 24" height="512" viewBox="0 0 24 24" width="512" xmlns="http://www.w3.org/2000/svg" style="fill:white;"><g><path d="m.5 8c-.276 0-.5-.224-.5-.5v-5c0-1.379 1.121-2.5 2.5-2.5h5c.276 0 .5.224.5.5s-.224.5-.5.5h-5c-.827 0-1.5.673-1.5 1.5v5c0 .276-.224.5-.5.5z"/></g><g><path d="m21.5 24h-5c-.276 0-.5-.224-.5-.5s.224-.5.5-.5h5c.827 0 1.5-.673 1.5-1.5v-5c0-.276.224-.5.5-.5s.5.224.5.5v5c0 1.379-1.121 2.5-2.5 2.5z"/></g><g><path d="m7.5 24h-5c-1.379 0-2.5-1.121-2.5-2.5v-5c0-.276.224-.5.5-.5s.5.224.5.5v5c0 .827.673 1.5 1.5 1.5h5c.276 0 .5.224.5.5s-.224.5-.5.5z"/></g><g><path d="m23.5 8c-.276 0-.5-.224-.5-.5v-5c0-.827-.673-1.5-1.5-1.5h-5c-.276 0-.5-.224-.5-.5s.224-.5.5-.5h5c1.379 0 2.5 1.121 2.5 2.5v5c0 .276-.224.5-.5.5z"/></g><g><path d="m18.5 21h-13c-1.379 0-2.5-1.121-2.5-2.5v-13c0-1.379 1.121-2.5 2.5-2.5h13c1.379 0 2.5 1.121 2.5 2.5v13c0 1.379-1.121 2.5-2.5 2.5zm-13-17c-.827 0-1.5.673-1.5 1.5v13c0 .827.673 1.5 1.5 1.5h13c.827 0 1.5-.673 1.5-1.5v-13c0-.827-.673-1.5-1.5-1.5z"/></g></svg>