<svg width="635" height="975" viewBox="0 0 635 975" fill="none" xmlns="http://www.w3.org/2000/svg">
<mask id="mask0" mask-type="alpha" maskUnits="userSpaceOnUse" x="0" y="0" width="635" height="976">
<path d="M261.5 760C399.1 800.4 497.999 665.667 529.499 596.5C554.333 609.667 607.399 663.2 626.999 746C651.499 849.5 609 877 485.5 961C362 1045 89.4999 709.5 261.5 760Z" fill="white"/>
<path d="M417 290.5C404.833 279.333 363.4 221 295 77C226.6 -67 71.4998 25.3333 2.49979 89.5C-17.2585 360.122 127 837 328 868C194.5 433.5 204.968 193.138 417 290.5Z" fill="white"/>
<path d="M261.5 760C399.1 800.4 497.999 665.667 529.499 596.5C554.333 609.667 607.399 663.2 626.999 746C651.499 849.5 609 877 485.5 961C362 1045 89.4999 709.5 261.5 760Z" stroke="white"/>
<path d="M417 290.5C404.833 279.333 363.4 221 295 77C226.6 -67 71.4998 25.3333 2.49979 89.5C-17.2585 360.122 127 837 328 868C194.5 433.5 204.968 193.138 417 290.5Z" stroke="white"/>
</mask>
<g mask="url(#mask0)">
<path d="M91.6477 159.41C110.985 148.246 135.189 146.082 163.331 153.01C191.54 159.953 223.074 175.914 255.988 200.021C321.791 248.219 391.534 327.829 449.135 427.597C506.736 527.365 540.809 627.569 549.648 708.655C554.068 749.213 552.123 784.503 544.032 812.404C535.961 840.239 521.985 860.119 502.648 871.283C483.311 882.447 459.106 884.611 430.964 877.684C402.756 870.74 371.221 854.78 338.307 830.672C272.505 782.475 202.761 702.865 145.16 603.097C87.5592 503.329 53.4863 403.124 44.6477 322.038C40.2268 281.481 42.172 246.191 50.2628 218.289C58.3344 190.454 72.3107 170.574 91.6477 159.41Z" stroke="white" stroke-width="20"/>
</g>
<g clip-path="url(#clip0)">
<path d="M537.06 427.746C532.76 416.171 527.622 404.923 521.688 394.093C521.567 393.855 521.434 393.625 521.29 393.403C510.717 374.295 497.754 356.611 482.709 340.787C482.425 340.432 482.109 340.104 481.77 339.8C465.668 323.001 447.36 308.463 427.349 296.588C426.854 296.221 426.319 295.909 425.75 295.664C346.491 249.442 248.487 249.442 169.224 295.664C168.659 295.913 168.125 296.221 167.626 296.584C147.614 308.459 129.306 323.001 113.205 339.8C112.865 340.104 112.554 340.432 112.269 340.787C97.2241 356.615 84.2573 374.295 73.6881 393.407C73.5633 393.644 73.3918 393.839 73.2943 394.089C67.3567 404.919 62.2183 416.167 57.9181 427.742C57.8129 427.96 57.7388 428.175 57.6608 428.401C37.8168 482.397 36.8031 541.516 54.7836 596.159C54.8382 596.299 54.8694 596.443 54.9279 596.584C60.7797 614.287 68.5614 631.293 78.1286 647.297C78.3353 647.742 78.5809 648.167 78.8616 648.568C90.5263 667.757 104.651 685.332 120.881 700.853C121.189 701.2 121.524 701.523 121.887 701.812C220.265 795.391 374.737 795.391 473.115 701.812C473.477 701.523 473.813 701.2 474.121 700.853C490.347 685.336 504.471 667.757 516.136 648.572C516.421 648.17 516.666 647.742 516.869 647.293C526.44 631.293 534.218 614.287 540.07 596.584C540.132 596.443 540.163 596.299 540.218 596.159C558.199 541.516 557.185 482.401 537.337 428.408C537.239 428.178 537.165 427.96 537.06 427.746V427.746ZM525.98 584.631H68.9863C63.2086 565.254 59.9298 545.219 59.232 525.013H246.382C251.084 525.013 254.9 521.2 254.9 516.498C254.9 511.792 251.084 507.98 246.382 507.98H59.232C60.039 484.779 64.2456 461.824 71.7232 439.847H523.239C539.193 486.646 540.152 537.258 525.98 584.631V584.631ZM503.867 635.73H420.386C404.612 623.96 385.282 617.948 365.614 618.697C345.949 617.948 326.62 623.96 310.846 635.73H91.0955C84.768 624.825 79.3177 613.434 74.7953 601.664H520.171C515.649 613.434 510.199 624.825 503.867 635.73V635.73ZM314.514 661.282C314.815 657.075 316.764 653.157 319.941 650.385C320.066 650.268 320.167 650.143 320.284 650.018C333.154 639.901 349.271 634.822 365.614 635.73C381.961 634.822 398.078 639.901 410.947 650.018C411.064 650.143 411.165 650.268 411.29 650.385C414.468 653.157 416.417 657.075 416.717 661.282C416.717 673.363 395.731 686.829 365.614 686.829C335.501 686.829 314.514 673.363 314.514 661.282V661.282ZM86.3743 405.781H508.592C511.516 411.34 514.261 417.009 516.752 422.814H78.2144C80.7017 417.009 83.4464 411.34 86.3743 405.781V405.781ZM122.526 354.681H472.44C482.191 365.227 490.974 376.627 498.69 388.748H96.2768C103.988 376.627 112.772 365.227 122.526 354.681ZM174.799 312.097H420.164C432.511 319.551 444.156 328.1 454.963 337.648H140C150.807 328.1 162.456 319.551 174.799 312.097V312.097ZM385.82 295.063H209.142C265.844 272.354 329.119 272.354 385.82 295.063ZM101.953 652.763H298.803C297.934 655.519 297.485 658.393 297.481 661.282C297.879 671.371 302.783 680.751 310.846 686.829H130.815C120.16 676.397 110.495 664.989 101.953 652.763V652.763ZM150.234 703.866H444.729C358.386 771.999 236.577 771.999 150.234 703.866ZM464.148 686.829H420.386C428.448 680.751 433.353 671.371 433.75 661.282C433.746 658.393 433.298 655.519 432.429 652.763H493.013C484.468 664.989 474.807 676.397 464.148 686.829V686.829Z" fill="white"/>
<path d="M374.132 652.763H357.099C352.394 652.763 348.581 656.576 348.581 661.282C348.581 665.983 352.394 669.796 357.099 669.796H374.132C378.834 669.796 382.651 665.983 382.651 661.282C382.651 656.576 378.834 652.763 374.132 652.763Z" fill="white"/>
<path d="M365.614 499.465C365.614 497.176 364.69 494.985 363.049 493.391C364.717 489.976 365.594 486.229 365.614 482.432C365.614 468.319 354.175 456.88 340.066 456.88C325.953 456.88 314.514 468.319 314.514 482.432C314.538 486.229 315.415 489.976 317.084 493.391C314.604 495.808 313.84 499.484 315.146 502.689C316.452 505.894 319.571 507.987 323.033 507.98H357.099C361.801 507.98 365.614 504.167 365.614 499.465V499.465ZM340.066 473.913C344.768 473.913 348.581 477.726 348.581 482.432C348.581 487.134 344.768 490.946 340.066 490.946C335.36 490.946 331.548 487.134 331.548 482.432C331.551 477.73 335.364 473.917 340.066 473.913Z" fill="white"/>
<path d="M482.28 493.391C483.953 489.976 484.83 486.229 484.85 482.432C484.85 468.319 473.411 456.88 459.298 456.88C445.189 456.88 433.75 468.319 433.75 482.432C433.77 486.229 434.647 489.976 436.316 493.391C433.84 495.808 433.072 499.484 434.378 502.689C435.684 505.894 438.807 507.987 442.265 507.98H476.331C479.793 507.987 482.912 505.894 484.218 502.689C485.528 499.484 484.76 495.808 482.28 493.391ZM459.298 473.913C464.004 473.913 467.817 477.726 467.817 482.432C467.817 487.134 464.004 490.946 459.298 490.946C454.596 490.946 450.783 487.134 450.783 482.432C450.787 477.73 454.596 473.917 459.298 473.913Z" fill="white"/>
<path d="M433.75 525.013C429.045 525.013 425.232 528.826 425.232 533.531C425.232 534.225 424.939 550.564 399.684 550.564C375.836 550.564 374.218 536.276 374.132 533.531C374.132 528.826 370.32 525.013 365.614 525.013C360.912 525.013 357.099 528.826 357.099 533.531C357.099 545.313 366 567.597 399.684 567.597C433.368 567.597 442.265 545.313 442.265 533.531C442.265 528.826 438.452 525.013 433.75 525.013V525.013Z" fill="white"/>
</g>
<defs>
<clipPath id="clip0">
<rect width="511" height="511" fill="white" transform="translate(42 260)"/>
</clipPath>
</defs>
</svg>
