<svg height="511pt" viewBox="0 0 511.99834 511" width="511pt" xmlns="http://www.w3.org/2000/svg" style="fill:white;"><path d="m496.027344 167.574219c-4.308594-11.597657-9.457032-22.867188-15.402344-33.71875-.121094-.238281-.253906-.46875-.398438-.691407-10.59375-19.144531-23.582031-36.863281-38.65625-52.71875-.285156-.355468-.601562-.683593-.941406-.988281-16.132812-16.832031-34.476562-31.398437-54.527344-43.296875-.496093-.367187-1.03125-.679687-1.601562-.925781-79.414062-46.3125-177.609375-46.3125-257.027344 0-.566406.25-1.101562.558594-1.601562.921875-20.050782 11.898438-38.394532 26.46875-54.527344 43.300781-.339844.304688-.652344.632813-.9375.988281-15.074219 15.859376-28.066406 33.574219-38.65625 52.722657-.125.238281-.296875.433593-.394531.683593-5.949219 10.851563-11.097657 22.121094-15.40625 33.71875-.105469.21875-.179688.433594-.257813.660157-19.882812 54.101562-20.898437 113.335937-2.882812 168.085937.054687.140625.085937.285156.144531.425782 5.863281 17.738281 13.660156 34.777343 23.246094 50.8125.207031.445312.453125.871093.734375 1.273437 11.6875 19.226563 25.839844 36.835937 42.101562 52.386719.308594.347656.644532.671875 1.007813.960937 98.570312 93.761719 253.34375 93.761719 351.914062 0 .363281-.289062.699219-.613281 1.007813-.960937 16.257812-15.546875 30.410156-33.160156 42.097656-52.382813.285156-.402343.53125-.832031.734375-1.28125 9.589844-16.03125 17.382813-33.070312 23.246094-50.808593.0625-.140626.09375-.285157.148437-.425782 18.015625-54.75 17-113.980468-2.886718-168.078125-.097657-.230469-.171876-.449219-.277344-.664062zm-11.101563 157.191406h-457.886719c-5.789062-19.414063-9.074218-39.488281-9.773437-59.734375h187.515625c4.710938 0 8.535156-3.820312 8.535156-8.53125 0-4.714844-3.824218-8.535156-8.535156-8.535156h-187.515625c.808594-23.246094 5.023437-46.246094 12.515625-68.265625h452.398438c15.984374 46.890625 16.945312 97.601562 2.746093 145.066406zm-22.15625 51.199219h-83.644531c-15.804688-11.792969-35.171875-17.816406-54.878906-17.066406-19.703125-.75-39.070313 5.273437-54.875 17.066406h-220.179688c-6.339844-10.925782-11.800781-22.339844-16.332031-34.132813h446.246094c-4.53125 11.792969-9.992188 23.207031-16.335938 34.132813zm-189.722656 25.601562c.300781-4.214844 2.253906-8.140625 5.4375-10.917968.125-.117188.226563-.242188.34375-.367188 12.894531-10.136719 29.042969-15.226562 45.417969-14.316406 16.378906-.910156 32.527344 4.179687 45.421875 14.316406.117187.125.21875.25.34375.367188 3.183593 2.777343 5.136719 6.703124 5.4375 10.917968 0 12.105469-21.027344 25.597656-51.203125 25.597656-30.171875 0-51.199219-13.492187-51.199219-25.597656zm-228.585937-256h423.042968c2.929688 5.570313 5.679688 11.25 8.175782 17.066406h-439.394532c2.492188-5.816406 5.242188-11.496093 8.175782-17.066406zm36.222656-51.199218h350.597656c9.769531 10.566406 18.570312 21.988281 26.300781 34.132812h-403.199219c7.726563-12.144531 16.527344-23.566406 26.300782-34.132812zm52.375-42.667969h245.84375c12.371094 7.46875 24.039062 16.035156 34.867187 25.601562h-315.578125c10.828125-9.566406 22.5-18.132812 34.867188-25.601562zm211.433594-17.066407h-177.023438c56.8125-22.753906 120.210938-22.753906 177.023438 0zm-284.421876 358.398438h197.234376c-.871094 2.761719-1.320313 5.640625-1.324219 8.535156.398437 10.109375 5.3125 19.507813 13.390625 25.597656h-180.382813c-10.675781-10.453124-20.359375-21.882812-28.917969-34.132812zm48.375 51.203125h295.070313c-86.511719 68.265625-208.558594 68.265625-295.070313 0zm314.527344-17.070313h-43.847656c8.078125-6.089843 12.992188-15.488281 13.390625-25.597656-.003906-2.894531-.453125-5.773437-1.324219-8.535156h60.703125c-8.5625 12.25-18.242187 23.679688-28.921875 34.132812zm0 0"/><path d="m332.78125 393.03125h-17.066406c-4.714844 0-8.535156 3.820312-8.535156 8.535156 0 4.710938 3.820312 8.53125 8.535156 8.53125h17.066406c4.710938 0 8.535156-3.820312 8.535156-8.53125 0-4.714844-3.824218-8.535156-8.535156-8.535156zm0 0"/><path d="m324.246094 239.433594c0-2.292969-.925782-4.488282-2.570313-6.085938 1.671875-3.421875 2.550781-7.175781 2.570313-10.980468 0-14.140626-11.460938-25.601563-25.597656-25.601563-14.140626 0-25.601563 11.460937-25.601563 25.601563.023437 3.804687.902344 7.558593 2.574219 10.980468-2.484375 2.421875-3.25 6.105469-1.941406 9.316406 1.308593 3.210938 4.433593 5.308594 7.902343 5.300782h34.132813c4.710937 0 8.53125-3.820313 8.53125-8.53125zm-25.597656-25.601563c4.710937 0 8.53125 3.820313 8.53125 8.535157 0 4.710937-3.820313 8.53125-8.53125 8.53125-4.714844 0-8.535157-3.820313-8.535157-8.53125.003907-4.710938 3.824219-8.53125 8.535157-8.535157zm0 0"/><path d="m441.140625 233.347656c1.675781-3.421875 2.554687-7.175781 2.574219-10.980468 0-14.140626-11.460938-25.601563-25.601563-25.601563-14.136719 0-25.597656 11.460937-25.597656 25.601563.019531 3.804687.898437 7.558593 2.570313 10.980468-2.480469 2.421875-3.25 6.105469-1.941407 9.316406 1.308594 3.210938 4.4375 5.308594 7.902344 5.300782h34.132813c3.46875.007812 6.59375-2.089844 7.902343-5.300782 1.3125-3.210937.542969-6.894531-1.941406-9.316406zm-23.027344-19.515625c4.714844 0 8.535157 3.820313 8.535157 8.535157 0 4.710937-3.820313 8.53125-8.535157 8.53125-4.710937 0-8.53125-3.820313-8.53125-8.53125.003907-4.710938 3.820313-8.53125 8.53125-8.535157zm0 0"/><path d="m392.515625 265.03125c-4.714844 0-8.535156 3.820312-8.535156 8.535156 0 .695313-.292969 17.066406-25.597657 17.066406-23.894531 0-25.515624-14.316406-25.601562-17.066406 0-4.714844-3.820312-8.535156-8.535156-8.535156-4.710938 0-8.53125 3.820312-8.53125 8.535156 0 11.804688 8.917968 34.132813 42.667968 34.132813s42.664063-22.328125 42.664063-34.132813c0-4.714844-3.820313-8.535156-8.53125-8.535156zm0 0"/></svg>