<svg id="Capa_1" enable-background="new 0 0 510.141 510.141" height="512" viewBox="0 0 510.141 510.141"
    style="fill:white;" width="512" xmlns="http://www.w3.org/2000/svg">
    <g>
        <path
            d="m435.432 74.708c-48.176-48.176-112.23-74.708-180.362-74.708s-132.185 26.532-180.362 74.708c-48.176 48.177-74.708 112.23-74.708 180.362s26.532 132.186 74.708 180.362c48.176 48.177 112.23 74.708 180.362 74.708s132.186-26.532 180.362-74.708c48.177-48.176 74.708-112.23 74.708-180.362s-26.531-132.185-74.708-180.362zm-350.117 10.607c45.343-45.343 105.63-70.315 169.755-70.315s124.412 24.972 169.755 70.315c9.396 9.396 17.903 19.443 25.509 30.024-6.102 10.122-16.469 19.975-30.272 28.7-3.501 2.213-4.545 6.846-2.332 10.347 1.427 2.257 3.859 3.493 6.347 3.493 1.37 0 2.756-.375 4-1.162 13.454-8.505 23.926-17.848 31.282-27.878 11.925 19.218 21.023 39.955 27.053 61.702-37.815 39.205-129.851 65.337-231.344 65.337-45.171 0-89.467-5.144-128.098-14.877-4.018-1.011-8.093 1.424-9.105 5.441s1.424 8.093 5.441 9.105c39.811 10.03 85.374 15.331 131.762 15.331 53.803 0 105.463-6.98 149.395-20.187 36.857-11.079 66.232-25.902 85.97-43.272 3.109 15.521 4.679 51.243 4.64 53.034-13.05 14.619-34.44 28.126-62.116 39.161-15.938 6.354-34.048 5.593-49.688-2.091-17.535-8.614-37.955-12.161-59.05-10.25-23.795 2.154-45.874 11.186-62.167 25.431-12.549 10.972-28.282 16.482-44.318 15.511-46.899-2.837-90.979-11.043-127.475-23.73-34.149-11.872-60.069-27.053-75.195-44.006-.039-1.8-.066-3.602-.066-5.408 0-16.195 1.598-32.144 4.71-47.671 17.141 15.05 41.704 28.317 71.987 38.778.811.28 1.637.413 2.449.413 3.109 0 6.016-1.949 7.088-5.053 1.353-3.915-.725-8.185-4.64-9.538-32.335-11.17-57.413-25.453-72.868-41.454 6.03-21.751 15.131-42.491 27.058-61.712 30.137 40.99 111.115 68.762 204.286 68.762 52.621 0 103.258-8.991 142.583-25.317 3.826-1.588 5.64-5.977 4.051-9.802-1.587-3.826-5.977-5.639-9.802-4.051-37.545 15.587-86.139 24.171-136.832 24.171-91.098 0-171.854-28.051-195.277-67.239 7.611-10.589 16.123-20.642 25.524-30.043zm51.516 378.81c36.495 7.633 76.629 11.625 118.239 11.625s81.744-3.992 118.239-11.625c-35.66 20.242-76.121 31.016-118.239 31.016s-82.579-10.774-118.239-31.016zm287.995-39.299c-5.185 5.185-10.575 10.09-16.134 14.736-44.646 13.858-97.718 21.189-153.621 21.189s-108.975-7.331-153.621-21.189c-5.559-4.646-10.949-9.55-16.134-14.736-15.83-15.83-29.168-33.487-39.837-52.487 30.804 16.38 71.781 28.948 118.436 36.096.385.059.767.087 1.145.087 3.64 0 6.836-2.656 7.404-6.365.627-4.094-2.184-7.922-6.278-8.549-55.92-8.568-102.995-24.986-132.896-46.3-8.547-20.549-14.183-42.302-16.726-64.749 39.669 32.66 113.638 55.387 200.267 60.628 1.515.092 3.028.137 4.537.137 18.398 0 36.2-6.773 50.56-19.328 13.928-12.177 32.979-19.914 53.646-21.785 18.356-1.663 36.019 1.372 51.084 8.773 19.441 9.551 41.987 10.485 61.858 2.562 22.294-8.889 40.951-19.451 55.069-31.051-2.54 22.471-8.18 44.249-16.736 64.818-12.396 8.833-27.841 16.889-45.963 23.954-14.234 5.55-26.476 13.582-36.384 23.871-13.956 14.492-35.152 23.999-58.155 26.081-22.531 2.039-44.778-3.285-61.023-14.609-6.042-4.212-13.046-6.438-20.252-6.438-19.399 0-38.748-.904-57.508-2.687-4.12-.39-7.785 2.633-8.176 6.757-.392 4.124 2.633 7.784 6.757 8.176 19.229 1.827 39.055 2.754 58.927 2.754 4.124 0 8.161 1.294 11.674 3.743 16.46 11.474 37.948 17.728 60.216 17.728 3.565 0 7.15-.16 10.738-.485 26.543-2.402 51.186-13.561 67.607-30.615 8.392-8.714 18.831-15.544 31.028-20.3 10.229-3.988 19.687-8.297 28.319-12.889-10.667 18.995-24.002 36.646-39.828 52.472z" />
        <path
            d="m188.971 124.219c17.774 6.728 41.249 10.434 66.1 10.434s48.326-3.706 66.1-10.434c20.071-7.598 31.124-18.618 31.124-31.03s-11.053-23.433-31.124-31.03c-17.774-6.728-41.249-10.434-66.1-10.434s-48.325 3.706-66.1 10.434c-20.071 7.597-31.124 18.617-31.124 31.03s11.053 23.432 31.124 31.03zm66.099-57.494c50.193 0 82.224 15.673 82.224 26.463s-32.031 26.464-82.224 26.464-82.224-15.674-82.224-26.464 32.031-26.463 82.224-26.463z" />
        <path
            d="m291.714 397.727c10.381 7.218 23.578 11.112 37.478 11.112 1.131 0 2.268-.026 3.407-.078 32.006-1.458 57.101-23.356 55.941-48.814s-28.144-44.974-60.148-43.526c-32.006 1.458-57.101 23.356-55.941 48.814.58 12.719 7.421 24.258 19.263 32.492zm37.361-66.321c.917-.042 1.829-.063 2.733-.063 22.523 0 40.995 12.755 41.748 29.287.783 17.196-17.896 32.065-41.64 33.147-11.864.54-23.103-2.43-31.639-8.366-7.919-5.506-12.48-12.914-12.842-20.858-.783-17.196 17.897-32.066 41.64-33.147z" />
    </g>
</svg>