<svg width="512" height="512" viewBox="0 0 512 512" style="fill:white;"  xmlns="http://www.w3.org/2000/svg">
    <g>
        <path
            d="M256 143.472C238.8 143.472 224.807 128.214 224.807 109.459C224.807 85.94 246.666 85.94 256 85.94C265.334 85.94 287.193 85.94 287.193 109.459C287.193 128.213 273.2 143.472 256 143.472V143.472ZM256 100.94C240.462 100.94 239.807 103.551 239.807 109.459C239.807 119.943 247.072 128.472 256 128.472C264.928 128.472 272.193 119.943 272.193 109.459C272.193 103.551 271.538 100.94 256 100.94V100.94Z"
            fill="white" />
        <path
            d="M437.02 74.98C388.668 26.629 324.38 0 256 0C187.62 0 123.332 26.629 74.98 74.98C26.629 123.333 0 187.62 0 256C0 324.38 26.629 388.667 74.98 437.02C123.332 485.371 187.62 512 256 512C324.38 512 388.668 485.371 437.02 437.02C485.371 388.667 512 324.38 512 256C512 187.62 485.371 123.333 437.02 74.98ZM256 15C378.702 15 480.275 107.176 495.126 225.919C470.283 222.883 446.572 213.244 426.082 197.734C407.298 183.516 384.886 176 361.269 176C337.652 176 315.239 183.516 296.456 197.734C271.544 216.591 241.027 226.977 210.527 226.977H158.886C154.743 226.977 151.386 230.335 151.386 234.477C151.386 238.619 154.743 241.977 158.886 241.977H210.527C244.275 241.977 278.006 230.512 305.508 209.694C321.664 197.464 340.946 191 361.269 191C381.592 191 400.873 197.464 417.03 209.694C440.526 227.479 467.888 238.285 496.531 241.176C496.83 246.081 497 251.021 497 256C497 280.778 493.237 304.692 486.26 327.207C461.367 331.437 437.519 341.787 417.018 357.305C400.861 369.536 381.58 376 361.258 376C340.936 376 321.654 369.536 305.497 357.306C277.995 336.489 244.263 325.024 210.515 325.024H25.089C18.537 303.146 15 279.98 15 256C15 251.292 15.151 246.619 15.418 241.977H130.885C135.028 241.977 138.385 238.619 138.385 234.477C138.385 230.335 135.028 226.977 130.885 226.977H16.753C31.133 107.725 132.935 15 256 15ZM256 497C152.651 497 64.299 431.604 30.122 340.023H210.515C241.015 340.023 271.532 350.408 296.445 369.265C315.228 383.484 337.64 391 361.258 391C384.875 391 407.287 383.484 426.071 369.266C442.363 356.934 460.972 348.215 480.49 343.671C445.35 433.336 357.973 497 256 497Z"
            fill="white" />
        <path
            d="M361.258 341C392.964 341 418.758 315.206 418.758 283.5C418.758 273.832 416.31 264.267 411.677 255.839C409.683 252.209 405.12 250.885 401.492 252.879C397.862 254.874 396.537 259.434 398.532 263.065C401.951 269.285 403.758 276.352 403.758 283.501C403.758 306.936 384.693 326.001 361.258 326.001C337.823 326.001 318.758 306.936 318.758 283.501C318.758 260.066 337.823 241.001 361.258 241.001C368.406 241.001 375.472 242.807 381.689 246.224C385.32 248.219 389.879 246.893 391.875 243.264C393.869 239.634 392.544 235.074 388.914 233.079C380.489 228.449 370.926 226.002 361.259 226.002C329.553 226.002 303.759 251.796 303.759 283.502C303.759 315.208 329.552 341 361.258 341Z"
            fill="white" />
        <path
            d="M262.443 375.5C236.252 375.5 214.943 396.809 214.943 423C214.943 449.191 236.252 470.5 262.443 470.5C288.634 470.5 309.943 449.191 309.943 423C309.943 396.809 288.635 375.5 262.443 375.5ZM262.443 455.5C244.522 455.5 229.943 440.92 229.943 423C229.943 405.08 244.522 390.5 262.443 390.5C280.364 390.5 294.943 405.08 294.943 423C294.943 440.92 280.364 455.5 262.443 455.5Z"
            fill="white" />
        <path
            d="M124.886 371.012C109.723 371.012 97.386 383.348 97.386 398.512C97.386 413.676 109.723 426.012 124.886 426.012C140.049 426.012 152.386 413.676 152.386 398.512C152.386 383.348 140.049 371.012 124.886 371.012ZM124.886 411.012C117.993 411.012 112.386 405.405 112.386 398.512C112.386 391.619 117.993 386.012 124.886 386.012C131.779 386.012 137.386 391.619 137.386 398.512C137.386 405.405 131.778 411.012 124.886 411.012Z"
            fill="white" />
        <circle cx="336" cy="94" r="13" fill="white" />
        <circle cx="181" cy="94" r="13" fill="white" />
    </g>
    <defs>
        <clipPath id="clip0">
            <rect width="512" height="512" fill="white" />
        </clipPath>
    </defs>
</svg>