<svg id="Capa_1" enable-background="new 0 0 512 512" height="512" viewBox="0 0 512 512" width="512" style="fill:white;"
    xmlns="http://www.w3.org/2000/svg">
    <g>
        <path
            d="m437.02 74.98c-48.353-48.351-112.64-74.98-181.02-74.98s-132.667 26.629-181.02 74.98c-48.351 48.353-74.98 112.64-74.98 181.02s26.629 132.667 74.98 181.02c48.353 48.351 112.64 74.98 181.02 74.98s132.667-26.629 181.02-74.98c48.351-48.353 74.98-112.64 74.98-181.02s-26.629-132.667-74.98-181.02zm-233.95-38.705c-18.854 33.229-48.473 59.695-83.648 74.66-14.806 6.301-30.289 10.436-46.272 12.406 31.141-42.804 76.918-74.298 129.92-87.066zm-149.034 118.383c26.843-.345 52.751-5.744 77.132-16.117 42.017-17.878 77.277-49.757 99.291-89.764.011-.02.021-.038.031-.057 3.374-6.137 7.236-12.262 11.51-18.274 4.632-.285 9.297-.446 14-.446 28.883 0 56.514 5.455 81.928 15.375-19.179 14.224-36.336 30.787-51.186 49.486-32.369 40.756-75.985 69.667-126.129 83.608-.018.005-.036.01-.055.015-39.295 10.916-79.756 14.534-120.507 10.806 3.716-12.001 8.413-23.573 13.985-34.632zm-20.949 64.094c12.677 1.305 25.333 1.964 37.944 1.964 32.938 0 65.57-4.446 97.51-13.314.018-.005.034-.009.052-.014 56.314-15.644 105.294-48.104 141.643-93.871 16.529-20.811 36.273-38.665 58.758-53.184 28.812 16.703 53.607 39.589 72.575 66.825-35.113 15.137-66.897 36.085-94.665 62.463-66.027 62.727-158.519 88.391-247.427 68.67-.04-.01-.08-.019-.12-.027-21.566-4.792-43.702-7.222-65.794-7.222h-3.499c.236-10.972 1.268-21.751 3.023-32.29zm222.913 263.248c-65.436 0-124.454-27.964-165.763-72.558 13.531 2.963 26.797 6.921 39.684 11.873.043.017.087.033.13.049 35.168 13.495 72.509 20.273 109.888 20.273 30.899 0 61.822-4.636 91.537-13.943l77.3-24.213c7.641-2.394 15.476-4.434 23.446-6.156-41.457 51.589-105.043 84.675-176.222 84.675zm198.947-118.863c-18.967 2.254-37.48 6.184-55.138 11.715l-77.3 24.213c-59.273 18.566-123.845 16.521-181.821-5.752-.045-.018-.09-.034-.136-.052-24.565-9.425-50.344-15.621-76.733-18.475-8.062-12.997-14.854-26.86-20.177-41.427 21.412 2.937 42.107 9.028 61.755 18.198.024.011.055.024.085.039 32.49 15.152 68.419 23.097 104.275 23.096 1.93 0 3.863-.023 5.791-.069 37.747-.903 75.361-10.667 108.783-28.235.038-.02.076-.039.114-.06 46.935-24.702 99.389-39.715 152.737-43.841-4.51 21.49-12.079 41.866-22.235 60.65zm-144.358-43.417c-.04.021-.081.042-.121.063-59.507 31.319-131.415 33.041-192.354 4.603-.023-.011-.052-.024-.082-.038-26.325-12.278-54.289-19.7-83.274-22.134-1.449-6.946-2.57-14.01-3.363-21.171h2.167c19.876 0 39.793 2.183 59.198 6.487.038.009.077.018.116.026 21.922 4.872 44.025 7.255 65.976 7.255 76.875 0 151.692-29.27 208.714-83.439 26.168-24.858 56.278-44.403 89.632-58.249 15.85 30.874 24.802 65.849 24.802 102.877 0 5.42-.204 10.794-.581 16.12-59.613 3.682-118.406 20.029-170.83 47.6z" />
        <circle cx="431" cy="221" r="15" />
        <circle cx="301" cy="181" r="15" />
        <circle cx="261" cy="71" r="15" />
    </g>
</svg>