<svg height="409.6pt" style="fill:white;" viewBox="0 0 409.6 409.6" width="409.6pt" xmlns="http://www.w3.org/2000/svg"><path d="m204.800781 409.601562c-112.925781 0-204.800781-91.875-204.800781-204.800781s91.875-204.800781 204.800781-204.800781 204.800781 91.875 204.800781 204.800781-91.875 204.800781-204.800781 204.800781zm0-395.949218c-105.402343 0-191.148437 85.746094-191.148437 191.148437 0 105.398438 85.746094 191.144531 191.148437 191.144531 105.398438 0 191.144531-85.746093 191.144531-191.144531 0-105.402343-85.746093-191.148437-191.144531-191.148437zm0 0"/><path d="m204.800781 177.492188c-.722656 0-1.453125-.113282-2.160156-.347657-.855469-.289062-21.101563-7.0625-35.027344-14.023437-11.460937-5.734375-11.917969-22.835938-11.582031-29.921875.292969-6.214844 1.855469-21.011719 9.988281-24.15625 3.300781-1.277344 6.835938-.453125 9.476563 2.183593 3.324218 1.945313 22.105468 1.253907 40.414062-1.671874 11.695313-7.671876 44.851563-27.761719 60.210938-20.085938 3.703125 1.851562 7.3125 4.109375 10.804687 6.289062 10.722657 6.703126 17.699219 10.542969 24.050781 7.363282 3.316407-1.660156 13.0625-7.882813 41.035157-30.925782 2.882812-2.378906 7.15625-1.992187 9.5625.878907 12.390625 14.730469 22.632812 31.117187 30.441406 48.710937 1.480469 3.332032.078125 7.242188-3.1875 8.875l-51.265625 25.632813c-1.175781.589843-2.5.839843-3.804688.675781l-51.683593-5.738281 4.445312 17.78125c.582031 2.324219-.101562 4.785156-1.796875 6.484375-1.695312 1.695312-4.15625 2.371094-6.484375 1.796875l-27.304687-6.828125c-1.933594-.484375-3.558594-1.785156-4.449219-3.570313l-9.417969-18.835937-27.4375 27.4375c-1.304687 1.296875-3.050781 1.996094-4.828125 1.996094zm-33.644531-53.539063c-1.339844 4.808594-2.355469 13.632813-.675781 20.808594.890625 3.78125 2.253906 5.652343 3.238281 6.144531 9.523438 4.765625 22.746094 9.613281 29.273438 11.914062l31.109374-31.113281c1.554688-1.546875 3.769532-2.25 5.921876-1.914062 2.167968.355469 4.03125 1.722656 5.015624 3.6875l12.25 24.5 13.21875 3.304687-4.066406-16.269531c-.539062-2.167969.011719-4.464844 1.484375-6.148437 1.46875-1.679688 3.683594-2.550782 5.890625-2.292969l59.4375 6.605469 43.535156-21.765626c-5.910156-12.167968-13.085937-23.667968-21.421874-34.320312-19.164063 15.621094-32.039063 25.113281-38.289063 28.238281-13.660156 6.832031-26.269531-1.046875-37.390625-7.996093-3.371094-2.105469-6.554688-4.097657-9.675781-5.65625-5.988281-3-29.96875 8.175781-47.773438 20.054687-.804687.535156-1.714843.894531-2.664062 1.050781-16.851563 2.816406-37.511719 4.957032-48.417969 1.167969zm0 0"/><path d="m302.746094 354.988281h-20.183594c-3.25 0-6.050781-2.296875-6.691406-5.488281-.050782-.246094-5.054688-24.949219-14.78125-49.261719-9.394532-23.496093-23.585938-37.9375-23.726563-38.082031-1.917969-1.933594-2.515625-4.824219-1.5-7.355469l10.089844-25.230469c1.300781-3.246093 4.839844-4.988281 8.210937-4.027343 9.574219 2.734375 36.960938 9.828125 48.585938 9.828125 7.574219 0 13.769531-1.390625 19.757812-2.738282 5.28125-1.183593 10.273438-2.304687 15.5625-2.304687 3.773438 0 6.828126 3.054687 6.828126 6.824219v20.183594c0 1.058593-.246094 2.101562-.71875 3.054687-.199219.394531-19.90625 39.929687-24.714844 59.152344-5.167969 20.671875-10.390625 31.230469-10.609375 31.671875-1.160157 2.3125-3.523438 3.773437-6.109375 3.773437zm-14.691406-13.65625h10.222656c1.8125-4.460937 4.878906-12.863281 7.9375-25.101562 4.679687-18.710938 21.292968-52.925781 25.027344-60.492188v-11.007812c-1.8125.34375-3.722657.769531-5.742188 1.222656-6.40625 1.441406-13.660156 3.070313-22.753906 3.070313-12.152344 0-35.421875-5.792969-46.382813-8.71875l-6.242187 15.597656c5.203125 6.015625 15.832031 19.746094 23.644531 39.269531 7.496094 18.730469 12.21875 37.234375 14.289063 46.160156zm0 0"/><path d="m113.550781 387.300781c-1.089843 0-2.171875-.257812-3.15625-.769531-68.089843-35.449219-110.394531-105.082031-110.394531-181.730469 0-60.769531 26.773438-118.03125 73.453125-157.101562 2.140625-1.796875 5.164063-2.097657 7.613281-.78125 2.457032 1.324219 3.863282 4.007812 3.550782 6.78125-6.855469 60.507812-4.414063 76.574219-3.046876 80.675781 7.097657 21.285156 7.175782 48.785156 7.175782 49.945312 0 1.421876-.441406 2.808594-1.269532 3.964844l-33.214843 46.5-5.769531 34.613282 70.832031 38.632812c1.390625.761719 2.480469 1.984375 3.070312 3.457031l13.652344 34.132813c.722656 1.8125.636719 3.847656-.234375 5.589844l-16.15625 32.316406c-.820312 1.636718-2.261719 2.875-4 3.4375-.6875.226562-1.398438.335937-2.105469.335937zm-44.398437-317.136719c-35.46875 35.699219-55.5 83.855469-55.5 134.636719 0 69.21875 36.972656 132.316407 96.953125 166.300781l11.625-23.253906-11.605469-29.003906-72.933594-39.785156c-2.550781-1.390625-3.945312-4.246094-3.464844-7.117188l6.828126-40.960937c.167968-1.023438.574218-1.996094 1.175781-2.84375l32.824219-45.957031c-.167969-6.65625-1.113282-27.523438-6.4375-43.488282-3.15625-9.453125-2.96875-32.472656.535156-68.527344zm0 0"/><path d="m170.667969 95.574219c-1.789063 0-3.53125-.703125-4.828125-2l-6.828125-6.828125c-.652344-.652344-1.167969-1.433594-1.511719-2.289063l-13.652344-34.132812c-1.382812-3.453125.253906-7.382813 3.683594-8.828125l43.863281-18.527344c.605469-.253906 1.246094-.421875 1.902344-.492188 6.191406-.710937 12.390625 1.707032 16.511719 6.417969 4.117187 4.714844 5.671875 11.148438 4.15625 17.21875l-9.367188 37.464844c-.613281 2.445313-2.523437 4.351563-4.96875 4.964844l-27.304687 6.828125c-.550781.136718-1.109375.203125-1.65625.203125zm-1.011719-17.492188 3.101562 3.105469 19.585938-4.898438 8.371094-33.484374c.441406-1.761719.007812-3.558594-1.183594-4.925782-1.019531-1.164062-2.414062-1.820312-3.921875-1.867187l-36.597656 15.457031zm0 0"/><path d="m122.878906 204.800781c0 7.539063-6.113281 13.652344-13.652344 13.652344-7.539062 0-13.652343-6.113281-13.652343-13.652344 0-7.542969 6.113281-13.652343 13.652343-13.652343 7.539063 0 13.652344 6.109374 13.652344 13.652343zm0 0"/><path d="m245.761719 204.800781c0 7.539063-6.113281 13.652344-13.65625 13.652344-7.539063 0-13.652344-6.113281-13.652344-13.652344 0-7.542969 6.113281-13.652343 13.652344-13.652343 7.542969 0 13.65625 6.109374 13.65625 13.652343zm0 0"/><path d="m170.667969 293.546875c-15.058594 0-27.308594-12.761719-27.308594-28.445313 0-3.769531 3.058594-6.824218 6.828125-6.824218s6.824219 3.054687 6.824219 6.824218c0 8.15625 6.125 14.792969 13.65625 14.792969 7.527343 0 13.652343-6.636719 13.652343-14.792969 0-3.769531 3.054688-6.824218 6.828126-6.824218 3.769531 0 6.824218 3.054687 6.824218 6.824218 0 15.683594-12.25 28.445313-27.304687 28.445313zm0 0"/></svg>