<svg height="430.08pt" style="fill:white;" viewBox="0 0 430.08 430.08" width="430.08pt" xmlns="http://www.w3.org/2000/svg"><path d="m184.320312 430.078125c-101.632812 0-184.320312-82.683594-184.320312-184.316406 0-101.636719 82.6875-184.320313 184.320312-184.320313 16.847657 0 33.542969 2.273438 49.621094 6.753906 3.636719 1.015626 5.757813 4.78125 4.746094 8.410157-1.019531 3.636719-4.773438 5.746093-8.410156 4.746093-14.886719-4.15625-30.351563-6.257812-45.957032-6.257812-94.109374 0-170.667968 76.558594-170.667968 170.667969 0 94.105469 76.558594 170.664062 170.667968 170.664062 94.105469 0 170.667969-76.558593 170.667969-170.664062 0-15.613281-2.109375-31.078125-6.261719-45.960938-1.015624-3.632812 1.109376-7.398437 4.742188-8.410156 3.644531-1.003906 7.398438 1.109375 8.410156 4.742187 4.488282 16.078126 6.761719 32.773438 6.761719 49.628907 0 101.632812-82.6875 184.316406-184.320313 184.316406zm0 0"/><path d="m184.320312 221.984375c-.722656 0-1.449218-.113281-2.160156-.351563-.765625-.257812-18.964844-6.347656-31.496094-12.609374-10.648437-5.324219-11.082031-21-10.773437-27.492188.269531-5.707031 1.726563-19.3125 9.402344-22.28125 3.175781-1.214844 6.722656-.410156 9.25 2.117188 2.957031 1.527343 19.480469.867187 35.480469-1.679688 8-5.21875 35.398437-22.160156 50.40625-19.328125 3.707031.691406 6.152343 4.257813 5.457031 7.964844-.695313 3.707031-4.253907 6.15625-7.964844 5.453125-7.710937-1.433594-29.355469 9.949218-41.574219 18.097656-.804687.535156-1.714844.894531-2.664062 1.050781-14.804688 2.46875-32.867188 4.347657-43.035156 1.230469-1.097657 4.40625-1.832032 11.949219-.328126 17.9375.738282 2.949219 1.78125 4.382812 2.449219 4.71875 8.320313 4.160156 19.785157 8.386719 25.746094 10.496094l27.582031-27.578125c1.554688-1.550781 3.761719-2.234375 5.921875-1.914063 2.164063.355469 4.027344 1.726563 5.011719 3.6875l10.839844 21.671875 10.394531 2.597657-3.363281-13.441407c-.542969-2.167969.015625-4.464843 1.484375-6.148437 1.472656-1.679688 3.660156-2.554688 5.890625-2.292969l53.085937 5.898437 1.703125-.855468c3.378906-1.707032 7.464844-.320313 9.160156 3.046875 1.6875 3.375.320313 7.472656-3.046874 9.160156l-3.511719 1.757813c-1.175781.59375-2.496094.84375-3.808594.679687l-45.328125-5.035156 3.742188 14.953125c.578124 2.328125-.101563 4.789062-1.800782 6.484375-1.691406 1.695312-4.144531 2.382812-6.480468 1.796875l-24.484376-6.121094c-1.933593-.480469-3.558593-1.785156-4.449218-3.570312l-8.003906-16.007813-23.90625 23.902344c-1.300782 1.304687-3.046876 2.003906-4.828126 2.003906zm0 0"/><path d="m327.679688 204.800781c-56.464844 0-102.398438-45.9375-102.398438-102.402343 0-56.460938 45.933594-102.398438 102.398438-102.398438 56.464843 0 102.398437 45.9375 102.398437 102.398438 0 56.464843-45.933594 102.402343-102.398437 102.402343zm0-191.148437c-48.9375 0-88.746094 39.8125-88.746094 88.746094 0 48.9375 39.808594 88.75 88.746094 88.75s88.746093-39.8125 88.746093-88.75c0-48.933594-39.808593-88.746094-88.746093-88.746094zm0 0"/><path d="m278.964844 367.464844h-18.097656c-3.253907 0-6.054688-2.296875-6.695313-5.488282-.042969-.21875-4.523437-22.308593-13.214844-44.042968-8.429687-21.074219-20.984375-33.773438-21.109375-33.898438-1.929687-1.933594-2.523437-4.828125-1.511718-7.363281l9.046874-22.617187c1.300782-3.246094 4.847657-4.992188 8.210938-4.027344 8.558594 2.445312 33.027344 8.785156 43.367188 8.785156 6.714843 0 12.222656-1.242188 17.558593-2.4375 4.773438-1.074219 9.28125-2.089844 14.109375-2.089844 3.769532 0 6.828125 3.058594 6.828125 6.828125v18.09375c0 1.058594-.25 2.105469-.722656 3.054688-.179687.351562-17.8125 35.730469-22.101563 52.886719-4.65625 18.609374-9.367187 28.144531-9.566406 28.542968-1.152344 2.3125-3.515625 3.773438-6.101562 3.773438zm-12.617188-13.652344h8.136719c1.625-4.074219 4.265625-11.425781 6.902344-21.976562 4.179687-16.722657 18.921875-47.136719 22.417969-54.226563v-8.84375c-1.367188.273437-2.792969.59375-4.292969.929687-5.777344 1.300782-12.324219 2.769532-20.546875 2.769532-10.757813 0-31.078125-5.007813-41.164063-7.679688l-5.203125 13.003906c4.792969 5.59375 14.136719 17.835938 21.035156 35.070313 6.585938 16.46875 10.796876 32.730469 12.714844 40.953125zm0 0"/><path d="m102.507812 410.085938c-1.085937 0-2.167968-.257813-3.152343-.769532-61.28125-31.902344-99.355469-94.574218-99.355469-163.554687 0-54.695313 24.09375-106.226563 66.101562-141.390625 2.148438-1.796875 5.160157-2.101563 7.617188-.78125 2.457031 1.324218 3.863281 4.007812 3.550781 6.78125-6.128906 54.113281-3.972656 68.398437-2.761719 72.027344 6.398438 19.1875 6.472657 43.957031 6.472657 45 0 1.425781-.445313 2.808593-1.269531 3.96875l-29.6875 41.554687-5.0625 30.375 63.0625 34.394531c1.390624.761719 2.476562 1.984375 3.070312 3.457032l12.238281 30.605468c.722657 1.8125.636719 3.847656-.234375 5.589844l-14.480468 28.96875c-.820313 1.636719-2.261719 2.878906-4 3.441406-.6875.222656-1.398438.332032-2.109376.332032zm-40.699218-283.117188c-30.792969 31.722656-48.15625 74.121094-48.15625 118.792969 0 61.550781 32.75 117.679687 85.917968 148.113281l9.945313-19.894531-10.1875-25.476563-65.167969-35.546875c-2.550781-1.394531-3.945312-4.246093-3.464844-7.117187l6.121094-36.71875c.171875-1.027344.574219-2 1.175782-2.84375l29.292968-41.011719c-.167968-6.179687-1.050781-24.507813-5.734375-38.550781-2.789062-8.386719-2.703125-28.449219.257813-59.746094zm0 0"/><path d="m153.714844 148.539062c-1.785156 0-3.527344-.703124-4.824219-2l-6.121094-6.121093c-.652343-.652344-1.171875-1.433594-1.515625-2.289063l-12.238281-30.605468c-1.378906-3.449219.253906-7.378907 3.683594-8.824219l39.328125-16.609375c.605468-.253906 1.246094-.425782 1.902344-.492188 5.792968-.65625 11.566406 1.589844 15.410156 5.988282 3.84375 4.398437 5.296875 10.410156 3.878906 16.078124l-8.398438 33.585938c-.613281 2.449219-2.523437 4.355469-4.964843 4.964844l-24.484375 6.121094c-.546875.136718-1.105469.203124-1.65625.203124zm-.300782-16.78125 2.394532 2.394532 16.761718-4.191406 7.402344-29.613282c.480469-1.917968-.476562-3.277344-.910156-3.777344-.371094-.425781-1.332031-1.324218-2.847656-1.425781l-32.03125 13.527344zm0 0"/><path d="m143.359375 327.679688c-18.820313 0-34.132813-15.3125-34.132813-34.132813 0-3.769531 3.058594-6.828125 6.828126-6.828125 3.769531 0 6.824218 3.058594 6.824218 6.828125 0 11.292969 9.1875 20.480469 20.480469 20.480469s20.480469-9.1875 20.480469-20.480469c0-3.769531 3.058594-6.828125 6.828125-6.828125s6.824219 3.058594 6.824219 6.828125c0 18.820313-15.3125 34.132813-34.132813 34.132813zm0 0"/><path d="m102.398438 273.066406c-11.292969 0-20.476563-9.1875-20.476563-20.480468 0-3.769532 3.054687-6.824219 6.824219-6.824219 3.769531 0 6.828125 3.054687 6.828125 6.824219 0 3.765624 3.0625 6.828124 6.824219 6.828124 3.765624 0 6.828124-3.0625 6.828124-6.828124 0-3.769532 3.058594-6.824219 6.828126-6.824219 3.769531 0 6.824218 3.054687 6.824218 6.824219 0 11.292968-9.1875 20.480468-20.480468 20.480468zm0 0"/><path d="m184.320312 273.066406c-11.292968 0-20.480468-9.1875-20.480468-20.480468 0-3.769532 3.058594-6.824219 6.828125-6.824219s6.824219 3.054687 6.824219 6.824219c0 3.765624 3.066406 6.828124 6.828124 6.828124 3.761719 0 6.828126-3.0625 6.828126-6.828124 0-3.769532 3.054687-6.824219 6.824218-6.824219 3.769532 0 6.828125 3.054687 6.828125 6.824219 0 11.292968-9.1875 20.480468-20.480469 20.480468zm0 0"/><path d="m375.464844 136.535156c0 7.539063-6.109375 13.652344-13.652344 13.652344-7.539062 0-13.652344-6.113281-13.652344-13.652344 0-7.542968 6.113282-13.65625 13.652344-13.65625 7.542969 0 13.652344 6.113282 13.652344 13.65625zm0 0"/><path d="m334.507812 54.613281c0 7.539063-6.113281 13.652344-13.65625 13.652344-7.539062 0-13.652343-6.113281-13.652343-13.652344 0-7.539062 6.113281-13.652343 13.652343-13.652343 7.542969 0 13.65625 6.113281 13.65625 13.652343zm0 0"/><path d="m307.199219 126.292969c0 9.425781-7.640625 17.066406-17.066407 17.066406-9.425781 0-17.066406-7.640625-17.066406-17.066406s7.640625-17.066407 17.066406-17.066407c9.425782 0 17.066407 7.640626 17.066407 17.066407zm0 0"/></svg>