<svg height="511pt" viewBox="0 0 511.69818 511" width="511pt" xmlns="http://www.w3.org/2000/svg" style="fill:white;"><path d="m255.671875.347656c-51.441406-.050781-101.691406 15.488282-144.128906 44.566406-.367188.21875-.714844.46875-1.042969.742188-17.789062 12.304688-33.957031 26.796875-48.128906 43.136719-.382813.367187-.734375.769531-1.039063 1.199219-78.074219 91.378906-82.019531 224.777343-9.476562 320.605468 72.539062 95.828125 202.003906 128.242188 311.140625 77.898438 109.136718-50.339844 168.515625-169.863282 142.707031-287.246094-25.804687-117.386719-129.84375-200.976562-250.03125-200.902344zm-137.519531 60.792969c16.925781 3.785156 28.292968 19.695313 26.382812 36.933594-1.90625 17.238281-16.476562 30.28125-33.820312 30.273437-17.34375-.003906-31.90625-13.058594-33.796875-30.300781 12.28125-13.84375 26.117187-26.230469 41.234375-36.90625zm-54.535156 53.253906c8.753906 20.53125 29.808593 33.015625 52.019531 30.84375 22.214843-2.171875 40.453125-18.496093 45.066406-40.332031s-5.46875-44.140625-24.90625-55.109375c66.871094-38.902344 148.445313-42.988281 218.867187-10.957031 70.417969 32.027344 120.949219 96.199218 135.570313 172.167968-14.644531-10.078124-31.53125-16.429687-49.191406-18.496093-34.113281-4.691407-68.347657 7.71875-91.523438 33.183593-15.714843-30.589843-45.402343-51.554687-79.484375-56.132812-26.558594-4.613281-53.855468 1.695312-75.695312 17.496094-21.175782 16.175781-34.703125 42.191406-39.113282 75.234375-.789062 5.933593-1.230468 11.910156-1.328124 17.898437-19.796876-4.546875-40.046876-6.820312-60.359376-6.777344-25.433593-.058593-50.738281 3.578126-75.125 10.792969-1.097656-9.246093-1.65625-18.546875-1.675781-27.859375-.050781-51.128906 16.390625-100.910156 46.878907-141.953125zm-42.59375 186.828125c23.492187-7.210937 47.941406-10.832031 72.515624-10.738281 20.621094-.078125 41.171876 2.429687 61.167969 7.457031 4.367188 38.457032 24.9375 63.5625 42.277344 84.582032 3.460937 4.191406 6.828125 8.277343 9.941406 12.316406 2.660157 3.460937 6.085938 7.6875 9.96875 12.375-24 20.46875-64.84375 34.152344-109.304687 36.441406-45.003906-35.558594-75.726563-86.109375-86.566406-142.433594zm108.054687 157.628906c40.351563-5.121093 75.675781-18.851562 98.816406-38.609374 19.835938 23.183593 46.101563 52.511718 63.976563 72.300781-11.980469 1.828125-24.082032 2.742187-36.199219 2.738281-44.789063.039062-88.675781-12.589844-126.59375-36.429688zm182.292969 29.808594c-23.828125-26.296875-73.351563-81.382812-90.921875-104.21875-3.222657-4.199218-6.710938-8.425781-10.296875-12.773437-21.128906-25.628907-45.082032-54.667969-38.011719-107.101563 3.800781-28.464844 15.058594-50.582031 32.554687-63.941406 18.257813-13.015625 40.996094-18.117188 63.0625-14.152344 32.710938 4.699219 60.203126 26.976563 71.582032 58 1.058594 3.050782 3.75 5.242188 6.949218 5.664063 3.199219.421875 6.367188-1 8.175782-3.671875 19.027344-27.0625 51.503906-41.332032 84.304687-37.039063 21.214844 1.976563 40.878907 11.949219 55.007813 27.894531.5 6.285157.828125 12.617188.828125 19.027344-.15625 110.441406-75.867188 206.433594-183.234375 232.3125zm0 0"/><path d="m110.605469 239.28125c14.136719 0 25.597656-11.460938 25.597656-25.597656 0-14.140625-11.460937-25.601563-25.597656-25.601563-14.140625 0-25.601563 11.460938-25.601563 25.601563.015625 14.132812 11.46875 25.582031 25.601563 25.597656zm0-34.132812c4.710937 0 8.53125 3.820312 8.53125 8.535156 0 4.710937-3.820313 8.53125-8.53125 8.53125-4.714844 0-8.535157-3.820313-8.535157-8.53125.003907-4.710938 3.824219-8.53125 8.535157-8.535156zm0 0"/><path d="m341.003906 136.882812c18.851563 0 34.132813-15.28125 34.132813-34.132812s-15.28125-34.132812-34.132813-34.132812c-18.851562 0-34.132812 15.28125-34.132812 34.132812.019531 18.84375 15.289062 34.113281 34.132812 34.132812zm0-51.199218c9.425782 0 17.066406 7.640625 17.066406 17.066406s-7.640624 17.066406-17.066406 17.066406c-9.425781 0-17.066406-7.640625-17.066406-17.066406.011719-9.421875 7.644531-17.054688 17.066406-17.066406zm0 0"/><path d="m400.738281 290.484375c-14.132812.015625-25.585937 11.464844-25.601562 25.597656.023437 3.808594.902343 7.5625 2.574219 10.980469-2.484376 2.421875-3.253907 6.105469-1.941407 9.316406 1.308594 3.214844 4.433594 5.308594 7.902344 5.304688h34.132813c3.46875.003906 6.59375-2.089844 7.902343-5.304688 1.3125-3.210937.542969-6.894531-1.941406-9.316406 1.671875-3.417969 2.550781-7.171875 2.574219-10.980469-.015625-14.132812-11.46875-25.582031-25.601563-25.597656zm0 17.066406c4.710938 0 8.535157 3.820313 8.535157 8.53125 0 4.714844-3.824219 8.535157-8.535157 8.535157-4.710937 0-8.535156-3.820313-8.535156-8.535157.007813-4.710937 3.824219-8.527343 8.535156-8.53125zm0 0"/><path d="m375.136719 358.75h-51.199219c-4.710938 0-8.53125 3.820312-8.53125 8.53125 0 4.714844 3.820312 8.535156 8.53125 8.535156h51.199219c4.714843 0 8.535156-3.820312 8.535156-8.535156 0-4.710938-3.820313-8.53125-8.535156-8.53125zm0 0"/><path d="m323.9375 333.148438c0-2.292969-.929688-4.488282-2.570312-6.085938 1.671874-3.417969 2.550781-7.171875 2.570312-10.980469 0-14.136719-11.460938-25.597656-25.597656-25.597656-14.140625 0-25.601563 11.460937-25.601563 25.597656.019531 3.808594.898438 7.5625 2.574219 10.980469-2.484375 2.421875-3.253906 6.105469-1.945312 9.316406 1.308593 3.214844 4.4375 5.308594 7.90625 5.304688h34.132812c4.710938 0 8.53125-3.820313 8.53125-8.535156zm-25.597656-25.597657c4.710937 0 8.53125 3.820313 8.53125 8.53125 0 4.714844-3.820313 8.535157-8.53125 8.535157-4.714844 0-8.535156-3.820313-8.535156-8.535157.003906-4.710937 3.824218-8.527343 8.535156-8.53125zm0 0"/></svg>