<svg id="Capa_1" enable-background="new 0 0 512 512" height="512" viewBox="0 0 512 512" width="512" style="fill:white;"
    xmlns="http://www.w3.org/2000/svg">
    <g>
        <path
            d="m437.02 74.98c-48.353-48.351-112.64-74.98-181.02-74.98s-132.667 26.629-181.02 74.98c-48.351 48.353-74.98 112.64-74.98 181.02s26.629 132.667 74.98 181.02c48.353 48.351 112.64 74.98 181.02 74.98s132.667-26.629 181.02-74.98c48.351-48.353 74.98-112.64 74.98-181.02s-26.629-132.667-74.98-181.02zm-.481 316.812c-36.543 48.463-92.116 81.798-155.511 88.815l-72.061-72.061c-29.242-29.242-29.242-76.824 0-106.066 29.243-29.243 76.824-29.241 106.065 0 11.358 11.358 18.647 25.738 21.079 41.585.845 5.506 4.671 10.09 9.937 11.905 5.267 1.815 11.105.562 15.163-3.252 17.814-16.746 45.315-16.318 62.608.975 10.065 10.063 14.694 24.107 12.72 38.099zm23.318-38.277c-3.633-7.693-8.608-14.819-14.825-21.035-13.875-13.875-32.319-21.671-51.935-21.95-11.632-.191-22.891 2.31-33.119 7.147-5.217-13.565-13.232-25.911-23.731-36.41-19.832-19.832-46.199-30.754-74.246-30.754-28.046 0-54.414 10.922-74.246 30.754-40.939 40.939-40.939 107.553-.001 148.492l51.629 51.628c-75.677-5.526-141.116-48.483-177.861-110.387h48.478c8.284 0 15-6.716 15-15s-6.716-15-15-15h-63.393c-10.696-26.254-16.607-54.948-16.607-85 0-26.28 4.524-51.52 12.809-75h101.191c8.284 0 15-6.716 15-15s-6.716-15-15-15h-88.076c37.875-71.878 113.34-121 200.076-121 48.207 0 92.93 15.181 129.659 41h-128.659c-8.284 0-15 6.716-15 15s6.716 15 15 15h163.313c35.006 37.088 57.619 85.981 61.177 140h-35.49c-8.284 0-15 6.716-15 15s6.716 15 15 15h35.49c-1.935 29.378-9.495 57.243-21.633 82.515z" />
        <path
            d="m436 166c0-8.284-6.716-15-15-15h-219c-8.284 0-15 6.716-15 15s6.716 15 15 15h219c8.284 0 15-6.716 15-15z" />
        <path d="m390 211h-58c-8.284 0-15 6.716-15 15s6.716 15 15 15h58c8.284 0 15-6.716 15-15s-6.716-15-15-15z" />
        <path d="m144 251h-68c-8.284 0-15 6.716-15 15s6.716 15 15 15h68c8.284 0 15-6.716 15-15s-6.716-15-15-15z" />
    </g>
</svg>