


    <svg width="385" height="716" viewBox="0 0 385 716" fill="white" xmlns="http://www.w3.org/2000/svg">
<path d="M185.623 3.42835C113.683 72.8342 70.0275 190.376 76.318 298.701C28.4836 348.376 0.998831 415.836 0.998831 485.739C0.968661 489.782 3.24649 493.508 6.85179 495.333C10.4873 497.159 14.8166 496.781 18.0599 494.353L84.5242 444.542L85.384 459.763C85.7008 465.42 90.3771 469.825 96.0491 469.825H289.951C292.877 469.825 295.547 468.633 297.493 466.687C299.289 464.892 300.45 462.463 300.601 459.748L301.461 444.527L367.925 494.338C371.168 496.766 375.483 496.616 379.088 494.82C380.008 494.353 380.838 493.734 381.577 492.995C383.719 490.853 384.971 487.73 384.986 484.729C384.986 415.79 357.501 348.331 309.667 298.656C315.912 190.165 272.588 72.3515 200.361 3.41326C196.243 -0.493742 189.757 -0.493737 185.623 3.42835ZM246.325 203.153C246.325 217.846 240.352 231.181 230.682 240.85C221.013 250.52 207.678 256.493 192.985 256.493C163.584 256.478 139.66 232.554 139.645 203.153C139.645 173.737 163.569 149.813 192.985 149.813C222.401 149.813 246.34 173.752 246.325 203.153Z" fill="white"/>
<path d="M127.064 571.92C127.064 604.201 177.825 699.282 183.602 710.007C185.458 713.462 189.078 715.604 192.985 715.619C195.881 715.619 198.566 714.472 200.542 712.496C201.267 711.772 201.885 710.942 202.398 710.007C208.175 699.282 258.936 604.201 258.936 571.92C258.936 535.565 229.355 505.983 193 505.983C156.63 505.998 127.079 535.58 127.064 571.92Z" fill="white"/>
</svg>
