<svg id="Capa_1" style="fill : white ; height : 20px; " enable-background="new 0 0 512.37 512.37" height="512" viewBox="0 0 512.37 512.37" width="512" xmlns="http://www.w3.org/2000/svg"><g><path d="m107.113 405.436c-21.484-22.846-58.2-20.232-79.082 3.289-40.837 44.378-24.87 96.485-25.352 100.745 17.964 2.574 61.33 10.633 100.84-25.445 23.072-21.038 26.536-55.504 3.594-78.589zm-24.236 56.819-.384.37c-16.053 16.053-38.723 19.167-52.438 19.407.196-13.669 3.286-36.193 19.469-52.376 9.132-10.62 24.893-14.649 36.056-3.332 10.554 10.628 9.072 24.974-2.703 35.931z"/><path d="m402.873 272.451c26.517-28.557 48.591-58.122 65.733-88.121 16.417-28.729 28.401-57.933 35.618-86.803 13.476-62.285 6.771-75.273 4.124-93.456-18.636-2.772-30.788-9.258-93.457 4.124-28.869 7.218-58.074 19.201-86.803 35.618-30 17.142-59.565 39.217-88.122 65.734l-178.626 35.725-61.246 61.245 38.714 38.714h47.428l28.953 28.953c-10.909 19.822-22.751 42.359-34.066 63.38l93.733 93.733c20.234-10.896 42.727-22.711 63.379-34.066l28.953 28.953v47.428l38.714 38.714 61.246-61.246zm17.312-234.648c28.077-7.251 49.663-7.835 61.717-7.288.55 12.075-.037 33.653-7.285 61.719-10.586 40.986-37.949 104.588-108.192 174.831-41.681 41.681-81.237 68.717-123.081 92.853l-34.814-34.814 13.058-13.058-21.213-21.213-13.058 13.058-34.815-34.815c24.135-41.845 51.172-81.401 92.853-123.081 70.242-70.243 133.844-97.605 174.83-108.192zm-321.522 177.429h-47.428l-8.715-8.715 33.61-33.61 126.304-25.26c-30.175 33.526-52.17 65.903-71.888 99.469zm81.66 179.106-62.241-62.241c5.672-10.629 12.958-24.326 19.207-35.805l28.813 28.812-13.058 13.058 21.213 21.213 13.058-13.058 28.812 28.812c-10.99 5.986-23.591 12.692-35.804 19.209zm125.579 75.561-8.715-8.715v-47.428l-31.884-31.884c33.565-19.718 65.943-41.713 99.469-71.889l-25.261 126.305z"/><path d="m318.996 193.424c18.924 18.924 49.716 18.924 68.641 0 18.925-18.925 18.925-49.717.001-68.641-18.925-18.925-49.717-18.925-68.642 0-18.924 18.924-18.924 49.716 0 68.641zm47.429-47.428c7.227 7.227 7.227 18.987-.001 26.215-7.227 7.227-18.987 7.227-26.214 0-7.228-7.228-7.228-18.988 0-26.215 7.227-7.228 18.987-7.228 26.215 0z"/></g></svg>