<svg height="431pt" viewBox="0 -3 431.82162 431" width="431pt" xmlns="http://www.w3.org/2000/svg" style="fill:white;"><path d="m225.570312 418.3125c-109.160156 0-197.972656-88.808594-197.972656-197.972656 0-109.164063 88.8125-197.972656 197.972656-197.972656 109.160157 0 197.976563 88.808593 197.976563 197.972656 0 109.164062-88.816406 197.972656-197.976563 197.972656zm0-382.292969c-101.632812 0-184.320312 82.6875-184.320312 184.320313 0 101.632812 82.6875 184.320312 184.320312 184.320312 101.636719 0 184.320313-82.6875 184.320313-184.320312 0-101.632813-82.683594-184.320313-184.320313-184.320313zm0 0"/><path d="m44.738281 426.300781c-7.773437.003907-14.066406-2.089843-18.554687-6.574219-14.910156-14.914062-5.558594-48.574218 27.808594-100.050781 2.054687-3.164062 6.273437-4.0625 9.4375-2.015625 3.167968 2.050782 4.070312 6.277344 2.015624 9.441406-32.675781 50.417969-36.371093 76.207032-29.605468 82.96875 16.136718 16.117188 110.792968-33.550781 228.351562-151.117187 51.628906-51.621094 95.632813-104.585937 123.914063-149.128906 30.5-48.042969 33.710937-72.703125 27.199219-79.21875-6.804688-6.796875-32.746094-3.027344-83.464844 29.929687-3.160156 2.050782-7.386719 1.15625-9.445313-2.003906-2.054687-3.164062-1.15625-7.390625 2.003907-9.445312 51.769531-33.644532 85.59375-43.109376 100.5625-28.136719 14.503906 14.507812 5.984374 46.871093-25.328126 96.191406-28.808593 45.367187-73.472656 99.15625-125.785156 151.464844-82.828125 82.828125-182.535156 157.6875-229.109375 157.695312zm0 0"/><path d="m24.257812 412.644531c-7.773437.003907-14.066406-2.085937-18.550781-6.574219-13.949219-13.945312-2.296875-49.902343 34.632813-106.875 2.050781-3.164062 6.28125-4.066406 9.4375-2.015624 3.167968 2.050781 4.066406 6.277343 2.015625 9.441406-39.1875 60.460937-41.339844 84.890625-36.433594 89.796875 16.152344 16.117187 110.792969-33.554688 228.351563-151.117188 51.628906-51.625 95.632812-104.585937 123.914062-149.128906 30.5-48.042969 33.714844-72.707031 27.199219-79.222656-6.804688-6.789063-32.738281-3.027344-83.464844 29.929687-3.160156 2.058594-7.378906 1.160156-9.445313-2.003906-2.054687-3.164062-1.15625-7.386719 2.003907-9.441406 51.769531-33.644532 85.59375-43.105469 100.5625-28.136719 14.507812 14.507813 5.988281 46.871094-25.328125 96.191406-28.804688 45.367188-73.472656 99.15625-125.785156 151.464844-82.828126 82.828125-182.535157 157.6875-229.109376 157.691406zm0 0"/><path d="m109.519531 213.515625c-11.292969 0-20.480469-9.1875-20.480469-20.480469 0-11.292968 9.1875-20.480468 20.480469-20.480468s20.480469 9.1875 20.480469 20.480468c0 11.292969-9.1875 20.480469-20.480469 20.480469zm0-27.308594c-3.769531 0-6.828125 3.0625-6.828125 6.828125 0 3.761719 3.058594 6.824219 6.828125 6.824219 3.765625 0 6.824219-3.0625 6.824219-6.824219 0-3.765625-3.058594-6.828125-6.824219-6.828125zm0 0"/><path d="m232.398438 213.515625c-11.292969 0-20.480469-9.1875-20.480469-20.480469 0-11.292968 9.1875-20.480468 20.480469-20.480468 11.292968 0 20.480468 9.1875 20.480468 20.480468 0 11.292969-9.1875 20.480469-20.480468 20.480469zm0-27.308594c-3.765626 0-6.828126 3.0625-6.828126 6.828125 0 3.761719 3.0625 6.824219 6.828126 6.824219 3.765624 0 6.828124-3.0625 6.828124-6.824219 0-3.765625-3.0625-6.828125-6.828124-6.828125zm0 0"/><path d="m170.957031 288.609375c-18.816406 0-34.132812-15.316406-34.132812-34.136719 0-3.769531 3.054687-6.824218 6.828125-6.824218 3.773437 0 6.824218 3.054687 6.824218 6.824218 0 11.292969 9.1875 20.480469 20.480469 20.480469s20.480469-9.1875 20.480469-20.480469c0-3.769531 3.054688-6.824218 6.828125-6.824218s6.824219 3.054687 6.824219 6.824218c0 18.820313-15.308594 34.136719-34.132813 34.136719zm0 0"/></svg>