<svg style="fill:white;" height="409pt" viewBox="0 0 409 409.57789" width="409pt" xmlns="http://www.w3.org/2000/svg"><path d="m268.914062 409.578125c-13.757812 0-27.097656-5.761719-36.867187-16.585937-6.878906-7.617188-16.703125-11.988282-26.972656-11.988282-10.265625 0-20.09375 4.371094-26.972657 11.988282-14.367187 15.90625-36.445312 20.882812-56.242187 12.6875-19.800781-8.203126-31.886719-27.332032-30.792969-48.738282.527344-10.25-3.339844-20.292968-10.597656-27.550781-7.261719-7.253906-17.242188-11.070313-27.546875-10.59375-21.542969 1.171875-40.535156-10.996094-48.734375-30.792969-8.203125-19.800781-3.222656-41.875 12.6875-56.238281 7.617188-6.878906 11.984375-16.710937 11.984375-26.976563 0-10.261718-4.367187-20.09375-11.984375-26.972656-15.90625-14.363281-20.886719-36.441406-12.6875-56.238281 8.199219-19.800781 27.324219-31.9375 48.734375-30.792969 10.308594.507813 20.289063-3.335937 27.550781-10.59375 7.257813-7.257812 11.125-17.300781 10.597656-27.554687-1.09375-21.402344 10.992188-40.53125 30.792969-48.734375 19.792969-8.210938 41.875-3.226563 56.242188 12.6875 6.878906 7.617187 16.707031 11.988281 26.972656 11.988281s20.09375-4.371094 26.972656-11.988281c14.355469-15.914063 36.441407-20.894532 56.242188-12.6875 19.800781 8.203125 31.886719 27.332031 30.792969 48.738281-.527344 10.25 3.339843 20.292969 10.597656 27.550781 7.261718 7.257813 17.242187 11.101563 27.546875 10.59375 21.546875-1.128906 40.535156 10.996094 48.734375 30.792969 8.203125 19.800781 3.222656 41.875-12.6875 56.238281-7.617188 6.878906-11.984375 16.710938-11.984375 26.976563 0 10.261719 4.367187 20.09375 11.984375 26.972656 15.90625 14.363281 20.886718 36.441406 12.6875 56.238281-8.207032 19.796875-27.390625 31.898438-48.734375 30.792969-10.304688-.472656-20.285157 3.339844-27.546875 10.59375-7.257813 7.257813-11.125 17.300781-10.597656 27.554687 1.09375 21.402344-10.992188 40.535157-30.792969 48.734376-6.335938 2.621093-12.902344 3.898437-19.378907 3.898437zm-63.835937-42.226563c14.117187 0 27.644531 6.007813 37.105469 16.492188 12.671875 14.042969 29.433594 13.964844 40.878906 9.21875 11.453125-4.742188 23.347656-16.542969 22.378906-35.421875-.714844-14.105469 4.601563-27.921875 14.585938-37.90625 9.980468-9.980469 23.84375-15.300781 37.894531-14.570313 19.066406.953126 30.6875-10.933593 35.425781-22.386718 4.746094-11.453125 4.8125-28.207032-9.21875-40.878906-10.480468-9.460938-16.492187-22.988282-16.492187-37.105469 0-14.121094 6.011719-27.648438 16.492187-37.109375 14.035156-12.671875 13.96875-29.425782 9.21875-40.878906-4.738281-11.453126-16.371094-23.347657-35.425781-22.386719-14.011719.71875-27.90625-4.589844-37.894531-14.570313-9.984375-9.980468-15.300782-23.796875-14.585938-37.902344.964844-18.882812-10.925781-30.683593-22.378906-35.425781-11.453125-4.75-28.214844-4.816406-40.878906 9.21875-9.460938 10.484375-22.988282 16.492188-37.105469 16.492188-14.121094 0-27.648437-6.007813-37.109375-16.492188-12.664062-14.035156-29.417969-13.960937-40.878906-9.21875-11.453125 4.742188-23.347656 16.542969-22.378906 35.421875.714843 14.109375-4.601563 27.925782-14.585938 37.90625-9.988281 9.980469-23.835938 15.296875-37.894531 14.570313-19.027344-.984375-30.6875 10.929687-35.425781 22.386719-4.746094 11.453124-4.8125 28.207031 9.21875 40.878906 10.480468 9.460937 16.492187 22.988281 16.492187 37.109375 0 14.117187-6.011719 27.644531-16.492187 37.105469-14.035157 12.671874-13.96875 29.425781-9.21875 40.878906 4.738281 11.457031 16.425781 23.378906 35.425781 22.386718 14.101562-.683593 27.914062 4.589844 37.894531 14.570313 9.984375 9.984375 15.300781 23.800781 14.585938 37.902344-.964844 18.882812 10.925781 30.683593 22.378906 35.425781 11.453125 4.746094 28.207031 4.816406 40.878906-9.21875 9.460938-10.484375 22.988281-16.492188 37.109375-16.492188zm0 0"/><path d="m205.078125 361.804688c-86.582031 0-157.015625-70.4375-157.015625-157.011719 0-86.578125 70.433594-157.015625 157.015625-157.015625 86.578125 0 157.011719 70.4375 157.011719 157.015625 0 86.574219-70.433594 157.011719-157.011719 157.011719zm0-300.375c-79.046875 0-143.363281 64.3125-143.363281 143.363281 0 79.046875 64.316406 143.359375 143.363281 143.359375 79.042969 0 143.359375-64.3125 143.359375-143.359375 0-79.050781-64.316406-143.363281-143.359375-143.363281zm0 0"/><path d="m143.636719 143.351562c0 7.539063-6.113281 13.652344-13.652344 13.652344-7.542969 0-13.65625-6.113281-13.65625-13.652344 0-7.539062 6.113281-13.652343 13.65625-13.652343 7.539063 0 13.652344 6.113281 13.652344 13.652343zm0 0"/><path d="m293.824219 143.351562c0 7.539063-6.113281 13.652344-13.65625 13.652344-7.539063 0-13.652344-6.113281-13.652344-13.652344 0-7.539062 6.113281-13.652343 13.652344-13.652343 7.542969 0 13.65625 6.113281 13.65625 13.652343zm0 0"/><path d="m252.859375 199.171875c-.105469-10.714844-95.460937-10.714844-95.570313 0v.226563c0 18.058593 21.394532 32.699218 47.785157 32.699218s47.785156-14.640625 47.785156-32.699218c.003906-.074219.003906-.148438 0-.226563zm-47.78125 19.273437c-11.3125 0-20.480469-3.058593-20.480469-6.828124 0-3.769532 9.167969-6.824219 20.480469-6.824219 11.308594 0 20.476563 3.054687 20.476563 6.824219 0 3.769531-9.167969 6.828124-20.476563 6.828124zm0 0"/></svg>