<svg id="line_icons" style="fill:white;" height="512" viewBox="0 0 74 74" width="512" xmlns="http://www.w3.org/2000/svg" data-name="line icons"><path d="m37.173 63.1a25.614 25.614 0 1 1 25.613-25.61 25.642 25.642 0 0 1 -25.613 25.61zm0-49.227a23.614 23.614 0 1 0 23.613 23.617 23.64 23.64 0 0 0 -23.613-23.614z"/><path d="m35.673 9.473 1.5-6.295 1.5 6.295z"/><path d="m24.451 12.462-1.19-6.36 3.931 5.14z"/><path d="m15.415 19.758-3.674-5.327 5.682 3.098z"/><path d="m10.128 30.098-5.523-3.372 6.45.519z"/><path d="m9.504 41.695-6.417-.834 6.103-2.15z"/><path d="m13.65 52.543-6.202 1.848 4.702-4.446z"/><path d="m21.85 60.767-4.913 4.21 2.486-5.974z"/><path d="m32.686 64.944-2.776 5.845-.158-6.469z"/><path d="m44.284 64.353-.158 6.469-2.776-5.845z"/><path d="m54.64 59.095 2.486 5.975-4.913-4.211z"/><path d="m61.961 50.081 4.702 4.446-6.202-1.848z"/><path d="m64.983 38.867 6.104 2.15-6.417.834z"/><path d="m63.183 27.394 6.45-.519-5.523 3.372z"/><path d="m56.872 17.645 5.681-3.097-3.674 5.327z"/><path d="m47.141 11.306 3.931-5.14-1.19 6.36z"/></svg>