<svg id="Capa_1" style="fill:white;" enable-background="new 0 0 512 512" height="512" viewBox="0 0 512 512" width="512" xmlns="http://www.w3.org/2000/svg"><path d="m193.465 107c-4.142 0-7.5-3.358-7.5-7.5v-12c0-4.142 3.358-7.5 7.5-7.5s7.5 3.358 7.5 7.5v12c0 4.142-3.358 7.5-7.5 7.5z"/><path d="m318.362 107c-4.142 0-7.5-3.358-7.5-7.5v-12c0-4.142 3.358-7.5 7.5-7.5s7.5 3.358 7.5 7.5v12c0 4.142-3.358 7.5-7.5 7.5z"/><path d="m285.007 99.155c-4.142 0-7.5 3.358-7.5 7.5 0 3.835-3.12 6.956-6.956 6.956s-6.956-3.12-6.956-6.956c0-4.142-3.358-7.5-7.5-7.5s-7.5 3.358-7.5 7.5c0 3.835-3.12 6.956-6.956 6.956s-6.956-3.12-6.956-6.956c0-4.142-3.358-7.5-7.5-7.5s-7.5 3.358-7.5 7.5c0 12.106 9.849 21.956 21.956 21.956 5.533 0 10.59-2.062 14.456-5.451 3.865 3.39 8.923 5.451 14.456 5.451 12.106 0 21.956-9.849 21.956-21.956 0-4.142-3.358-7.5-7.5-7.5z"/><path d="m437.02 74.98c-48.353-48.351-112.64-74.98-181.02-74.98s-132.667 26.629-181.02 74.98c-48.351 48.353-74.98 112.64-74.98 181.02s26.629 132.667 74.98 181.02c48.353 48.351 112.64 74.98 181.02 74.98s132.667-26.629 181.02-74.98c48.351-48.353 74.98-112.64 74.98-181.02s-26.629-132.667-74.98-181.02zm-406.717 265.52h34.429c4.142 0 7.5-3.358 7.5-7.5s-3.358-7.5-7.5-7.5h-39.501c-2.462-8.161-4.503-16.502-6.096-25h170.316c6.893 0 12.5 5.607 12.5 12.5s-5.607 12.5-12.5 12.5h-96.72c-4.142 0-7.5 3.358-7.5 7.5s3.358 7.5 7.5 7.5h96.719c15.164 0 27.5-12.336 27.5-27.5s-12.336-27.5-27.5-27.5h-172.642c-1.186-9.671-1.808-19.514-1.808-29.5 0-132.888 108.112-241 241-241 100.895 0 187.492 62.33 223.348 150.5h-156.299c-15.164 0-27.5 12.336-27.5 27.5 0 6.893-5.607 12.5-12.5 12.5h-86.667c-15.164 0-27.5 12.336-27.5 27.5s12.336 27.5 27.5 27.5h155.175c4.142 0 7.5-3.358 7.5-7.5s-3.358-7.5-7.5-7.5h-155.175c-6.893 0-12.5-5.607-12.5-12.5s5.607-12.5 12.5-12.5h86.667c15.164 0 27.5-12.336 27.5-27.5 0-6.893 5.607-12.5 12.5-12.5h161.824c6.809 20.588 10.91 42.394 11.884 65h-117.2c-4.142 0-7.5 3.358-7.5 7.5s3.358 7.5 7.5 7.5h117.386c-.415 22.552-3.944 44.355-10.174 65h-138.387c-15.164 0-27.5 12.336-27.5 27.5 0 6.893-5.607 12.5-12.5 12.5h-177.333c-15.164 0-27.5 12.336-27.5 27.5s12.336 27.5 27.5 27.5h64.667c6.893 0 12.5 5.607 12.5 12.5 0 15.164 12.336 27.5 27.5 27.5h147.654c-36.98 23.116-80.638 36.5-127.37 36.5-103.169 0-191.391-65.17-225.697-156.5zm374.437 105h-169.024c-6.893 0-12.5-5.607-12.5-12.5 0-15.164-12.336-27.5-27.5-27.5h-64.667c-6.893 0-12.5-5.607-12.5-12.5s5.607-12.5 12.5-12.5h177.333c15.164 0 27.5-12.336 27.5-27.5 0-6.893 5.607-12.5 12.5-12.5h133.314c-15.657 41.685-42.536 77.925-76.956 105z"/><path d="m121.551 165.5h-55.333c-15.164 0-27.5 12.336-27.5 27.5s12.336 27.5 27.5 27.5h55.333c15.164 0 27.5-12.336 27.5-27.5s-12.336-27.5-27.5-27.5zm0 40h-55.333c-6.893 0-12.5-5.607-12.5-12.5s5.607-12.5 12.5-12.5h55.333c6.893 0 12.5 5.607 12.5 12.5s-5.607 12.5-12.5 12.5z"/></svg>