<svg xmlns="http://www.w3.org/2000/svg" height="880pt" version="1.1" style="fill:white;" viewBox="0 0 880.00071 880" width="880pt">
<g id="surface1">
<path d="M 440 0 C 282.910156 0.117188 137.792969 83.949219 59.226562 219.980469 L 58.695312 219.980469 L 58.695312 220.90625 C -52.273438 413.449219 -1.894531 658.539062 176.023438 791.703125 L 176.023438 791.9375 L 176.324219 791.9375 C 332.53125 909.257812 547.46875 909.257812 703.667969 791.9375 L 703.980469 791.9375 L 703.980469 791.703125 C 898.328125 646.003906 937.765625 370.347656 792.070312 175.992188 C 708.980469 65.160156 578.527344 -0.0546875 440 0 Z M 431.667969 29.535156 C 423.496094 35.117188 415.664062 41.183594 408.207031 47.691406 C 368.402344 83.109375 316.984375 102.667969 263.707031 102.660156 L 206.203125 102.660156 C 272.472656 56.523438 350.9375 31.078125 431.667969 29.535156 Z M 440 850.59375 C 365.570312 850.667969 292.542969 830.378906 228.816406 791.933594 L 651.328125 791.933594 C 587.558594 830.40625 514.476562 850.691406 440 850.59375 Z M 846.382812 498.625 L 561.992188 498.625 C 508.75 498.726562 460.398438 529.671875 438 577.96875 C 406.566406 645.730469 338.710938 689.140625 264.015625 689.277344 L 264.015625 718.613281 C 350.148438 718.441406 428.390625 668.386719 464.636719 590.242188 C 482.21875 552.324219 520.1875 528.03125 561.992188 527.957031 L 841.039062 527.957031 C 820.519531 620.886719 768.390625 703.820312 693.554688 762.601562 L 186.449219 762.601562 C 115.1875 706.640625 64.402344 628.710938 41.960938 540.925781 C 75.789062 540.710938 107.335938 523.84375 126.304688 495.839844 L 147.496094 464.425781 C 170.382812 430.671875 208.558594 410.503906 249.347656 410.632812 C 313.652344 410.261719 366.136719 462.007812 366.675781 526.3125 C 366.332031 550.5 355.773438 573.402344 337.617188 589.378906 C 315.757812 612.101562 283.125 620.886719 252.808594 612.207031 C 229.070312 604.195312 211.542969 583.9375 207.007812 559.300781 C 203.058594 536.078125 214.394531 512.9375 235.167969 501.824219 C 248.425781 493.484375 265.171875 492.996094 278.902344 500.550781 C 290.78125 507.441406 298.136719 520.089844 298.242188 533.820312 L 327.578125 533.820312 C 327.464844 509.640625 314.570312 487.328125 293.671875 475.160156 C 270.96875 462.195312 243.015625 462.613281 220.722656 476.265625 C 189.058594 493.4375 171.925781 528.941406 178.191406 564.417969 C 184.609375 599.542969 209.546875 628.4375 243.363281 639.914062 C 253.785156 643.480469 264.730469 645.296875 275.746094 645.285156 C 306.226562 644.421875 335.289062 632.214844 357.257812 611.066406 C 381.566406 589.554688 395.636719 558.769531 396 526.3125 C 395.453125 445.8125 329.851562 380.945312 249.347656 381.304688 C 198.824219 381.179688 151.550781 406.183594 123.21875 448.011719 L 102.003906 479.414062 C 88.285156 499.664062 65.394531 511.75 40.933594 511.675781 L 35.761719 511.675781 C 25.402344 453.753906 27.648438 394.28125 42.359375 337.304688 L 258.152344 337.304688 C 315.589844 337.378906 371.3125 356.925781 416.210938 392.757812 C 466.300781 432.707031 528.445312 454.519531 592.515625 454.628906 L 850.265625 454.628906 C 849.757812 469.355469 848.460938 484.039062 846.382812 498.625 Z M 689.195312 282.3125 C 703.683594 261.625 727.355469 249.308594 752.609375 249.3125 L 803.527344 249.3125 C 832.175781 303.699219 848.152344 363.863281 850.265625 425.296875 L 592.515625 425.296875 C 535.082031 425.222656 479.355469 405.675781 434.457031 369.847656 C 384.367188 329.890625 322.214844 308.082031 258.152344 307.980469 L 51.246094 307.980469 C 58.109375 287.792969 66.546875 268.179688 76.464844 249.3125 L 284.058594 249.3125 C 340.757812 249.460938 394.378906 223.558594 429.511719 179.050781 C 460.382812 139.949219 507.503906 117.191406 557.320312 117.328125 L 557.320312 87.992188 C 498.550781 87.839844 442.964844 114.691406 406.546875 160.824219 C 376.960938 198.292969 331.804688 220.109375 284.058594 219.980469 L 93.527344 219.980469 C 114.375 187.265625 139.71875 157.640625 168.816406 131.988281 L 263.707031 131.988281 C 324.179688 132.007812 382.554688 109.8125 427.757812 69.632812 C 445.375 53.976562 465.4375 41.304688 487.152344 32.117188 C 610.125 46.472656 720.078125 115.476562 786.476562 219.988281 L 752.609375 219.988281 C 717.332031 219.972656 684.332031 237.40625 664.457031 266.546875 C 664.074219 267.09375 663.734375 267.664062 663.445312 268.265625 C 637.941406 319.707031 585.414062 352.171875 527.992188 351.976562 L 527.992188 381.304688 C 596.148438 381.535156 658.574219 343.207031 689.195312 282.3125 Z M 689.195312 282.3125 " style=" stroke:none;fill-rule:nonzero;fill:rgb(0%,0%,0%);fill-opacity:1;fill:white;" />
<path d="M 615.984375 234.644531 C 615.984375 194.148438 583.160156 161.316406 542.660156 161.316406 C 502.164062 161.316406 469.328125 194.148438 469.328125 234.644531 C 469.328125 275.144531 502.164062 307.980469 542.660156 307.980469 C 583.132812 307.929688 615.9375 275.125 615.984375 234.644531 Z M 498.664062 234.644531 C 498.664062 210.351562 518.359375 190.652344 542.660156 190.652344 C 566.957031 190.652344 586.652344 210.351562 586.652344 234.644531 C 586.652344 258.945312 566.957031 278.644531 542.660156 278.644531 C 518.359375 278.644531 498.664062 258.945312 498.664062 234.644531 Z M 498.664062 234.644531 " style=" stroke:none;fill-rule:nonzero;fill:rgb(0%,0%,0%);fill-opacity:1;fill:white;" />
<path d="M 557.320312 689.277344 C 589.71875 689.277344 615.984375 663.015625 615.984375 630.613281 C 615.984375 598.214844 589.71875 571.949219 557.320312 571.949219 C 524.921875 571.949219 498.65625 598.21875 498.65625 630.613281 C 498.65625 663.015625 524.925781 689.277344 557.320312 689.277344 Z M 557.320312 601.285156 C 573.523438 601.285156 586.652344 614.414062 586.652344 630.613281 C 586.652344 646.8125 573.523438 659.941406 557.320312 659.941406 C 541.121094 659.941406 527.992188 646.8125 527.992188 630.613281 C 527.992188 614.414062 541.125 601.285156 557.320312 601.285156 Z M 557.320312 601.285156 " style=" stroke:none;fill-rule:nonzero;fill:rgb(0%,0%,0%);fill-opacity:1;fill:white;" />
</g>
</svg>